<svg version="1.2" xmlns="http://www.w3.org/2000/svg" viewBox="0 0 248 626" width="248" height="626">
	<title>HT6-logo</title>
	<style>
		.s0 { fill: #65e2dd } 
		.s1 { fill: #11706c } 
		.s2 { fill: #d6fffd } 
		.s3 { fill: #3cccc6 } 
		.s4 { fill: #25b5af } 
	</style>
	<g id="Background">
		<path id="Path 0" class="s0" d="m99.1 120.2l-0.1 25.3c53 31.8 69 41 69.6 41 0.6 0 8.5-6.1 17.6-13.5 12.6-10.2 16.3-13.8 15.5-14.7-0.7-0.6-22.6-14.3-48.7-30.3-26.1-16.1-48.9-30.1-50.6-31.2l-3.1-2zm-0.1 205.1l-0.1 30.3c37.5 24 48.6 31.1 49 31.2 0.3 0.2 11.1-6.2 24.1-14.3 12.9-8 23.8-14.8 24.1-15.2 0.4-0.4-19.6-13.6-44.4-29.2-24.8-15.7-46.8-29.6-48.8-30.8l-3.7-2.3z"/>
		<path id="Path 1" class="s1" d="m185.3 173.6l-16.3 13.4c0 48.5 0.4 59 1 59 0.6 0 8.2-4.5 17-10l16-10c0-51.1-0.3-66-0.8-65.9-0.4 0-8 6.1-17 13.5zm-86.4 359.2c-53.8 32.8-97.6 60.2-97.5 60.7 0.2 0.5 11.3 8 24.8 16.7l24.4 15.6c13.2-8.2 57.3-35.2 106.5-65.3 49.2-30 89.6-54.9 89.8-55.3 0.2-0.4-0.3-1-1-1.3-0.7-0.3-11.9-7.4-24.8-15.7-12.9-8.3-23.7-15.1-24-15.1-0.3 0-44.5 26.9-98.2 59.7z"/>
		<path id="Path 2" class="s2" d="m23.6 14.7l-23.8 14.8c0.3 438.6 0.6 565.3 0.9 564.5 0.2-0.8 44.3-28.3 98-61 53.6-32.7 97.7-60 97.9-60.5 0.2-0.6 0.3-26.7 0.2-58.1l-0.3-57.1-48.5 30.2v53c-36.8 23.1-59.2 37.6-73.5 47.1l-26 17.3-1-505z"/>
		<path id="Path 3" class="s3" d="m48.5 0.7c-0.5 0.3-0.8 113.7-0.7 252 0.1 166.7 0.5 251.3 1.2 251.3 0.5 0 12-7.3 25.5-16.3l24.6-16.2 0.4-176.5 97.4 61.5 0.1 116.5c36 23 47.5 30.2 48.7 30.8l2.3 1.2c0.1-170.7 0-175.6-1.7-177.1-1-0.8-34-21.5-73.3-45.8-39.3-24.4-72.1-44.8-72.7-45.5-1-0.9-1.2-16.4-1-71.3l0.2-70.2 103 63.4 0.5 67c35.8 22.9 43.4 28.3 42.6 28.8q-1.1 0.8 0.4 0.4c1.3-0.3 1.5-8.5 1.8-64.8 0.3-60.8 0.2-64.5-1.5-66-1-0.9-44.8-28.6-97.3-61.4-52.5-32.9-96.4-60.4-97.6-61.2-1.1-0.7-2.4-1-2.9-0.6z"/>
		<path id="Path 4" class="s4" d="m186.8 236c-8.7 5.5-16.3 10-16.8 10-0.6 0-0.9 0.5-0.8 1 0.2 0.6 10.2 7.3 22.3 14.9l22 13.8c25-15.6 32.1-20.5 31.9-21-0.2-0.4 0-0.8 0.5-1 0.5-0.1-8.4-6.1-19.8-13.4-11.3-7.2-21.3-13.4-22.1-13.7-0.9-0.3-8.1 3.7-17.3 9.4z"/>
	</g>
</svg>