<svg width="336" height="846" viewBox="0 0 336 846" fill="none" xmlns="http://www.w3.org/2000/svg">
<path d="M275.025 305.484L228.861 334.487V253.277L275.025 215.524V305.484Z" fill="#11706C"/>
<path d="M228.859 253.277L133.727 196.285V128.513L275.072 215.524L228.859 253.277Z" fill="#65E2DD"/>
<path d="M275.025 305.486L334.676 343.239L288.512 372.243L228.861 334.489L275.025 305.486Z" fill="#25B5AF"/>
<path d="M133.727 479.7L201.596 523.109L266.854 482.6L133.727 398.344V479.7Z" fill="#65E2DD"/>
<path d="M201.596 523.11V595.716L65.8585 679.827V0.800003L0.600006 41.502V804.64L266.806 642.074V482.601L201.596 523.11Z" fill="#D6FFFD"/>
<path d="M0.600006 801.692L68.4689 845.295L334.675 682.728L266.807 639.319L0.600006 801.692Z" fill="#11706C"/>
<path d="M334.675 682.727V444.848L133.727 320.035V128.513L275.072 215.525V305.485L335.4 344.108L334.723 169.215L65.8582 0.799835V682.727L133.727 637.771V398.345L266.855 482.601V639.318L334.675 682.727Z" fill="#3CCCC6"/>
</svg>
